<svg xmlns="http://www.w3.org/2000/svg" viewBox="0 0 24 24" style="fill: #666666;"><g data-name="08 - Briefcase"><path d="M19.11,20.5H4.89A2.39,2.39,0,0,1,2.5,18.11V8.89A2.39,2.39,0,0,1,4.89,6.5H19.11A2.39,2.39,0,0,1,21.5,8.89v9.22A2.39,2.39,0,0,1,19.11,20.5ZM4.89,7.5A1.39,1.39,0,0,0,3.5,8.89v9.22A1.39,1.39,0,0,0,4.89,19.5H19.11a1.39,1.39,0,0,0,1.39-1.39V8.89A1.39,1.39,0,0,0,19.11,7.5Z"/><path d="M16 7.5H8A.5.5 0 0 1 7.5 7V4.48a1 1 0 0 1 1-1h7a1 1 0 0 1 1 1V7A.5.5 0 0 1 16 7.5zm-7.5-1h7v-2l-7 0zM21 12.5H3a.5.5 0 0 1 0-1H21a.5.5 0 0 1 0 1zM14 14.5H10a.5.5 0 0 1 0-1h4a.5.5 0 0 1 0 1z"/></g></svg>